<svg width="32" height="32" viewBox="0 0 320 320" fill="none" xmlns="http://www.w3.org/2000/svg">
<rect width="320" height="320" fill="#0C0C0E"/>
<path d="M210.292 195L199.092 118H215.892L221.492 160C221.959 163.08 222.332 166.58 222.612 170.5C222.986 174.42 223.265 177.64 223.452 180.16C223.732 177.64 224.106 174.467 224.572 170.64C225.132 166.72 225.646 163.173 226.112 160L232.552 118H247.112L253.272 160C253.739 163.173 254.205 166.72 254.672 170.64C255.232 174.56 255.652 177.78 255.932 180.3C256.119 177.687 256.399 174.42 256.772 170.5C257.239 166.487 257.659 162.987 258.032 160L263.912 118H280.292L268.952 195H247.952L242.212 151.6C241.839 148.987 241.419 145.86 240.952 142.22C240.485 138.58 240.112 135.547 239.832 133.12C239.459 135.547 239.039 138.58 238.572 142.22C238.106 145.86 237.686 148.987 237.312 151.6L231.432 195H210.292Z" fill="#D4D4D8"/>
<path d="M133.347 220.2V200.6H155.747C159.574 200.6 162.514 199.527 164.567 197.38C166.62 195.327 167.647 192.433 167.647 188.7V137.6H137.547V118H188.647V189.4C188.647 198.92 185.847 206.433 180.247 211.94C174.647 217.447 166.994 220.2 157.287 220.2H133.347ZM177.447 105.82C173.62 105.82 170.54 104.84 168.207 102.88C165.967 100.92 164.847 98.26 164.847 94.9C164.847 91.54 165.967 88.88 168.207 86.92C170.54 84.96 173.62 83.98 177.447 83.98C181.274 83.98 184.307 84.96 186.547 86.92C188.88 88.88 190.047 91.54 190.047 94.9C190.047 98.26 188.88 100.92 186.547 102.88C184.307 104.84 181.274 105.82 177.447 105.82Z" fill="#D4D4D8"/>
<path d="M97.0016 195C89.1616 195 83.0016 192.76 78.5216 188.28C74.0416 183.8 71.8016 177.64 71.8016 169.8V136.9H51.5016V118H71.8016V96.3H92.8016V118H121.502V136.9H92.8016V169.8C92.8016 174 94.9016 176.1 99.1016 176.1H120.102V195H97.0016Z" fill="#D4D4D8"/>
<rect width="214" height="20" transform="translate(53 260)" fill="url(#paint0_linear_1_175)"/>
<defs>
<linearGradient id="paint0_linear_1_175" x1="0" y1="10" x2="214" y2="10" gradientUnits="userSpaceOnUse">
<stop stop-color="#5EFDF7"/>
<stop offset="0.5" stop-color="#5EFDF7"/>
<stop offset="0.5" stop-color="#FF5DCC"/>
<stop offset="0.75" stop-color="#FF5DCC"/>
<stop offset="0.75" stop-color="#FDFE89"/>
<stop offset="1" stop-color="#FDFE89"/>
</linearGradient>
</defs>
</svg>
