<?xml version="1.0" encoding="UTF-8" standalone="no"?>
<!DOCTYPE svg PUBLIC "-//W3C//DTD SVG 1.1//EN" "http://www.w3.org/Graphics/SVG/1.1/DTD/svg11.dtd">
<svg width="100%" height="100%" viewBox="0 0 512 512" version="1.1" xmlns="http://www.w3.org/2000/svg" xmlns:xlink="http://www.w3.org/1999/xlink" xml:space="preserve" xmlns:serif="http://www.serif.com/" style="fill-rule:evenodd;clip-rule:evenodd;stroke-linejoin:round;stroke-miterlimit:2;">
    <g transform="matrix(4.16667,0,0,4.16667,-1019,-1394)">
        <g transform="matrix(-1,0,0,1,596.135,22.161)">
            <g id="Layer-2" serif:id="Layer 2">
                <rect x="222.276" y="309.128" width="151.583" height="151.583" style="fill:none;"/>
            </g>
        </g>
        <g transform="matrix(0.24,0,0,0.24,244.56,334.56)">
            <rect x="0" y="0" width="512" height="512"/>
        </g>
        <g id="Layer-1" serif:id="Layer 1" transform="matrix(0.871954,0,0,0.871954,46.099,48.9087)">
            <g transform="matrix(-0.908419,-0.419109,-0.419109,0.908419,330.59,387.537)">
                <path d="M0.417,-6.296C0.722,-6.19 1.028,-6.084 1.333,-5.979C1.028,-3.704 0.723,-1.431 0.417,0.843L-4.138,-1.258C-2.619,-2.937 -1.101,-4.617 0.417,-6.296" style="fill:url(#_Linear1);fill-rule:nonzero;"/>
            </g>
            <g transform="matrix(1,0,0,1,345.267,451.809)">
                <path d="M0,-107.438C-0.65,-95.715 -1.293,-50.3 -1.935,-38.725C-2.15,-38.71 -2.365,-38.696 -2.581,-38.682C-5.184,-47.016 -7.788,-55.35 -10.392,-63.684L-15.409,-63.684C-18.065,-55.066 -20.72,-46.448 -23.376,-37.83C-23.567,-37.858 -23.758,-37.885 -23.949,-37.913C-24.574,-49.785 -25.2,-95.497 -25.828,-107.415L-43.054,-107.415C-41.379,-82.858 -39.718,-24.67 -38.05,-0.234L-16.61,-0.234C-15.396,-7.091 -14.208,-13.798 -13.021,-20.505C-10.977,-14.331 -9.557,-8.201 -7.929,-2.126C-7.707,-1.299 -6.459,-0.187 -5.66,-0.165C0.354,0 6.374,-0.075 13.043,-0.075C14.429,-24.554 15.815,-82.859 17.207,-107.438L0,-107.438Z" style="fill:url(#_Linear2);fill-rule:nonzero;"/>
            </g>
            <g transform="matrix(1,0,0,1,242.864,344.379)">
                <path d="M0,107.126L0,17.133L-9.204,17.133L-9.204,0L26.322,0L26.322,16.963L17.409,16.963L17.409,107.126L0,107.126Z" style="fill:url(#_Linear3);fill-rule:nonzero;"/>
            </g>
            <g transform="matrix(1,0,0,1,280.301,451.556)">
                <path d="M0,-107.178L17.225,-107.178C17.295,-106.307 17.213,-72.749 17.213,-71.968C17.221,-51.756 17.302,-30.729 17.206,-10.518C17.196,-8.461 16.656,-6.302 15.891,-4.378C14.773,-1.565 12.301,-0.162 9.357,-0.116C1.919,0 -5.523,-0.077 -13.174,-0.077C-13.174,-5.745 -13.222,-12.121 -13.222,-17.976L-0.198,-17.976C-0.198,-36.878 0,-88.272 0,-107.178" style="fill:url(#_Linear4);fill-rule:nonzero;"/>
            </g>
        </g>
    </g>
    <defs>
        <linearGradient id="_Linear1" x1="0" y1="0" x2="1" y2="0" gradientUnits="userSpaceOnUse" gradientTransform="matrix(-116.811,-54.2995,-54.2995,116.811,82.8857,51.7254)"><stop offset="0" style="stop-color:rgb(126,34,206);stop-opacity:1"/><stop offset="0.5" style="stop-color:rgb(239,68,68);stop-opacity:1"/><stop offset="1" style="stop-color:rgb(234,179,8);stop-opacity:1"/></linearGradient>
        <linearGradient id="_Linear2" x1="0" y1="0" x2="1" y2="0" gradientUnits="userSpaceOnUse" gradientTransform="matrix(128.814,-0.370207,0.370207,128.814,-111.607,-52.0301)"><stop offset="0" style="stop-color:rgb(126,34,206);stop-opacity:1"/><stop offset="0.5" style="stop-color:rgb(239,68,68);stop-opacity:1"/><stop offset="1" style="stop-color:rgb(234,179,8);stop-opacity:1"/></linearGradient>
        <linearGradient id="_Linear3" x1="0" y1="0" x2="1" y2="0" gradientUnits="userSpaceOnUse" gradientTransform="matrix(128.814,-0.370207,0.370207,128.814,-9.204,55.3999)"><stop offset="0" style="stop-color:rgb(126,34,206);stop-opacity:1"/><stop offset="0.5" style="stop-color:rgb(239,68,68);stop-opacity:1"/><stop offset="1" style="stop-color:rgb(234,179,8);stop-opacity:1"/></linearGradient>
        <linearGradient id="_Linear4" x1="0" y1="0" x2="1" y2="0" gradientUnits="userSpaceOnUse" gradientTransform="matrix(128.814,-0.370207,0.370207,128.814,-46.641,-51.7771)"><stop offset="0" style="stop-color:rgb(126,34,206);stop-opacity:1"/><stop offset="0.5" style="stop-color:rgb(239,68,68);stop-opacity:1"/><stop offset="1" style="stop-color:rgb(234,179,8);stop-opacity:1"/></linearGradient>
    </defs>
</svg>
