<?xml version="1.0" encoding="utf-8"?>
<!-- Generator: Adobe Illustrator 18.1.1, SVG Export Plug-In . SVG Version: 6.00 Build 0)  -->
<svg version="1.1" id="Layer_1" xmlns="http://www.w3.org/2000/svg" xmlns:xlink="http://www.w3.org/1999/xlink" x="0px" y="0px"
	 viewBox="0 0 200 139.5" style="enable-background:new 0 0 200 139.5;" xml:space="preserve">
<g>
	<polyline points="29.4,12 29.4,30.6 39.6,30.6 39.6,127.6 58.3,127.6 58.3,30.6 68.4,30.6 68.4,12 	"/>
	<path d="M80.5,12v97H65.9v18.7c0,0,24.1,0,25.9,0c1.9,0,7.6-3,7.6-8.4s0-107.2,0-107.2H80.5z"/>
	<polygon points="104.7,12 110.3,127.6 133.3,127.6 137.7,104 143.4,127.6 166.1,127.6 170.6,12 152,12 149.8,87 137.7,50.6 
		125.9,87.3 123.5,12 	"/>
</g>
</svg>
